<svg width="32" height="32" xmlns="http://www.w3.org/2000/svg"><defs><style>.cls-1{fill:#5a8d03}</style></defs><g data-name="7. Health Chat" id="_7._Health_Chat"><path class="cls-1" d="M13 32a12.69 12.69 0 0 1-4.08-.67 2 2 0 0 0-.92-.11L1.11 32a1 1 0 0 1-.82-.28 1 1 0 0 1-.29-.83L.78 24a2.06 2.06 0 0 0-.11-.93A13 13 0 0 1 10.94 6.16a13 13 0 0 1 5 25.51A13.39 13.39 0 0 1 13 32Zm-4.82-2.8a4.15 4.15 0 0 1 1.36.24 11 11 0 1 0 1.7-21.3 11 11 0 0 0-8.68 14.32 4 4 0 0 1 .21 1.79l-.63 5.61 5.61-.63a3 3 0 0 1 .43-.03Z"/><path d="M15 26h-4a1 1 0 0 1-1-1v-3H7a1 1 0 0 1-1-1v-4a1 1 0 0 1 1-1h3v-3a1 1 0 0 1 1-1h4a1 1 0 0 1 1 1v3h3a1 1 0 0 1 1 1v4a1 1 0 0 1-1 1h-3v3a1 1 0 0 1-1 1Zm-3-2h2v-3a1 1 0 0 1 1-1h3v-2h-3a1 1 0 0 1-1-1v-3h-2v3a1 1 0 0 1-1 1H8v2h3a1 1 0 0 1 1 1Z" style="fill:#66a103"/><path class="cls-1" d="M29 20.65a1 1 0 0 1-1-1 1 1 0 0 1 .17-.56A10.83 10.83 0 0 0 30 13 11 11 0 0 0 19 2a10.83 10.83 0 0 0-6.08 1.85 1 1 0 0 1-.56.17 1 1 0 0 1-.48-1.88A12.83 12.83 0 0 1 19 0a13 13 0 0 1 13 13 12.81 12.81 0 0 1-2.17 7.16 1 1 0 0 1-.83.49Z"/></g></svg>